# xmcd
# 
# Track frame offsets:
#     150
#     19333
#     32500
#     53224
#     67540
#     87994
#     108166
#     122689
#     141270
#     160423
#     176579
#     193972
# 
# Disc length: 2834
# 
# Revision: 3
# Processed by: cddbd v1.5.2PL0 Copyright (c) Steve Scherf et al.
# Submitted via: fre:ac v1.0.31
# 
DISCID=9e0b100c
DTITLE=Trisha Yearwood - Let's Be Frank
DYEAR=2018
DGENRE=Country
TTITLE0=Witchcraft
TTITLE1=Drinking Again
TTITLE2=All The Way
TTITLE3=Come Fly With Me
TTITLE4=Over The Rainbow
TTITLE5=One For My Baby (And One More For The Road)
TTITLE6=They All Laughed
TTITLE7=If I Loved You
TTITLE8=The Man That Got Away
TTITLE9=The Lady Is A Tramp
TTITLE10=For The Last Time
TTITLE11=I'll Be Seeing You
EXTD=
EXTT0=
EXTT1=
EXTT2=
EXTT3=
EXTT4=
EXTT5=
EXTT6=
EXTT7=
EXTT8=
EXTT9=
EXTT10=
EXTT11=
PLAYORDER=
